<?xml version="1.0" encoding="UTF-8" standalone="no"?>
<!-- Created with Inkscape (http://www.inkscape.org/) -->

<svg
   xmlns:dc="http://purl.org/dc/elements/1.1/"
   xmlns:cc="http://creativecommons.org/ns#"
   xmlns:rdf="http://www.w3.org/1999/02/22-rdf-syntax-ns#"
   xmlns:svg="http://www.w3.org/2000/svg"
   xmlns="http://www.w3.org/2000/svg"
   xmlns:sodipodi="http://sodipodi.sourceforge.net/DTD/sodipodi-0.dtd"
   xmlns:inkscape="http://www.inkscape.org/namespaces/inkscape"
   width="212.46872mm"
   height="212.46872mm"
   viewBox="0 0 212.46872 212.46872"
   version="1.1"
   id="svg848"
   inkscape:version="0.92.5 (2060ec1f9f, 2020-04-08)"
   sodipodi:docname="BUZZR-2021.svg">
  <defs
     id="defs842" />
  <sodipodi:namedview
     id="base"
     pagecolor="#ffffff"
     bordercolor="#666666"
     borderopacity="1.0"
     inkscape:pageopacity="0.0"
     inkscape:pageshadow="2"
     inkscape:zoom="1.0684514"
     inkscape:cx="401.51569"
     inkscape:cy="401.51569"
     inkscape:document-units="mm"
     inkscape:current-layer="layer1"
     showgrid="false"
     showguides="true"
     inkscape:guide-bbox="true"
     inkscape:snap-global="true"
     fit-margin-top="0"
     fit-margin-left="0"
     fit-margin-right="0"
     fit-margin-bottom="0"
     inkscape:window-width="1920"
     inkscape:window-height="1027"
     inkscape:window-x="-8"
     inkscape:window-y="-8"
     inkscape:window-maximized="1"
     inkscape:snap-smooth-nodes="true" />
  <metadata
     id="metadata845">
    <rdf:RDF>
      <cc:Work
         rdf:about="">
        <dc:format>image/svg+xml</dc:format>
        <dc:type
           rdf:resource="http://purl.org/dc/dcmitype/StillImage" />
        <dc:title></dc:title>
      </cc:Work>
    </rdf:RDF>
  </metadata>
  <g
     inkscape:label="Layer 1"
     inkscape:groupmode="layer"
     id="layer1"
     transform="translate(-1.2725067,-38.026917)">
    <circle
       style="opacity:1;vector-effect:none;fill:#ff4e02;fill-opacity:1;fill-rule:evenodd;stroke:none;stroke-width:3.88546729;stroke-linecap:butt;stroke-linejoin:miter;stroke-miterlimit:4;stroke-dasharray:none;stroke-dashoffset:0;stroke-opacity:1"
       id="path1480"
       cx="107.50687"
       cy="144.26128"
       r="106.23436" />
    <path
       sodipodi:nodetypes="cccccccccssscccssscc"
       inkscape:connector-curvature="0"
       id="path1503-4"
       d="m 18.432549,124.3295 v 38.0316 h 17.84336 c 8.69658,0 14.47745,-3.17327 14.47745,-10.52948 0,-5.92706 -3.12033,-8.26599 -7.61303,-9.25958 4.27992,-1.09148 5.85712,-4.3945 5.85712,-7.89337 0,-7.63685 -6.3479,-10.34917 -12.37098,-10.34917 z m 12.81018,9.05789 h 1.59544 c 2.44511,0 3.60622,0.89121 3.60622,2.74477 0,1.69106 -1.29181,2.56578 -3.59832,2.56578 h -1.60334 z m 0,13.48859 h 2.36551 c 2.51256,0 4.15996,0.9659 4.15996,3.07517 0,2.05359 -1.83519,2.98088 -4.04783,2.98088 h -2.47764 z"
       style="opacity:1;fill:#fff2d9;fill-opacity:1;fill-rule:evenodd;stroke:none;stroke-width:0.11066879" />
    <path
       inkscape:connector-curvature="0"
       style="opacity:1;fill:#fff2d9;fill-opacity:1;fill-rule:evenodd;stroke:none;stroke-width:0.11062386"
       d="m 51.666159,124.32948 v 21.91084 c 0,12.81387 8.59322,17.13082 17.06142,17.13082 8.30468,0 17.84728,-3.60947 17.84728,-17.13082 v -21.91084 h -13.6639 v 21.63272 c 0,3.43248 -1.06258,5.42703 -3.79045,5.42703 -2.72786,0 -3.79045,-1.86447 -3.79045,-5.42703 v -21.63272 z"
       id="path1505-2" />
    <path
       inkscape:connector-curvature="0"
       style="opacity:1;fill:#fff2d9;fill-opacity:1;fill-rule:evenodd;stroke:none;stroke-width:0.11113022"
       d="m 88.207089,124.32948 v 11.34156 H 101.0256 l -16.029521,26.69009 h 37.409691 0.17749 37.24314 v -11.58087 h -15.04376 l 15.90529,-26.45078 h -37.39394 -0.0312 z m 35.055661,0.0519 v 11.28963 h 15.17261 l -15.8521,26.39456 v -11.28534 h -15.19457 z"
       id="path1507-8" />
    <path
       style="opacity:1;fill:#fff2d9;fill-opacity:1;fill-rule:evenodd;stroke:none;stroke-width:0.11048783"
       d="m 161.50299,124.32955 v 38.03158 h 13.40244 v -12.52939 l 6.6455,12.52939 h 15.30983 L 186.71467,146.8781 c 4.4804,-0.61921 7.29639,-4.30166 7.29639,-9.84847 0,-8.3433 -5.68041,-12.70008 -15.28103,-12.70008 z m 13.40244,9.79672 h 1.83765 c 2.92783,0 4.2976,1.25944 4.2976,3.78083 0,2.45402 -1.43947,3.64875 -4.23981,3.64875 h -1.89544 z"
       id="path1519-8"
       inkscape:connector-curvature="0"
       sodipodi:nodetypes="cccccccssccssscc" />
    <path
       style="opacity:1;fill:#583293;fill-opacity:1;fill-rule:evenodd;stroke:none;stroke-width:0.11113022"
       d="m 123.26275,124.38138 v 11.28963 h 15.17261 l -15.8521,26.39456 v -11.28534 h -15.19457 z"
       id="path1560"
       inkscape:connector-curvature="0" />
  </g>
</svg>
