<?xml version="1.0" encoding="UTF-8" standalone="no"?>
<!-- Created with Inkscape (http://www.inkscape.org/) -->

<svg
   width="1114.22mm"
   height="499.935mm"
   viewBox="0 0 1114.22 499.935"
   version="1.1"
   id="svg5"
   xml:space="preserve"
   inkscape:export-filename="WHDF 2024.png"
   inkscape:export-xdpi="96"
   inkscape:export-ydpi="96"
   inkscape:version="1.2.1 (9c6d41e410, 2022-07-14)"
   sodipodi:docname="WHDF 2024.svg"
   xmlns:inkscape="http://www.inkscape.org/namespaces/inkscape"
   xmlns:sodipodi="http://sodipodi.sourceforge.net/DTD/sodipodi-0.dtd"
   xmlns="http://www.w3.org/2000/svg"
   xmlns:svg="http://www.w3.org/2000/svg"><sodipodi:namedview
     id="namedview7"
     pagecolor="#ffffff"
     bordercolor="#000000"
     borderopacity="0.25"
     inkscape:showpageshadow="2"
     inkscape:pageopacity="0.0"
     inkscape:pagecheckerboard="0"
     inkscape:deskcolor="#d1d1d1"
     inkscape:document-units="mm"
     showgrid="false"
     inkscape:zoom="0.19799207"
     inkscape:cx="1535.415"
     inkscape:cy="676.79477"
     inkscape:window-width="1920"
     inkscape:window-height="1017"
     inkscape:window-x="-8"
     inkscape:window-y="-8"
     inkscape:window-maximized="1"
     inkscape:current-layer="layer1" /><defs
     id="defs2"><style
       id="style1">.cls-1{fill:#fff;stroke-width:0px;}</style></defs><g
     inkscape:label="Layer 1"
     inkscape:groupmode="layer"
     id="layer1"><path
       id="rect5"
       style="fill:#ff4500;fill-opacity:1;fill-rule:evenodd;stroke:none;stroke-width:1.56752"
       d="m 137.21295,206.41599 c -76.13112,0.34172 -137.33106627,64.49597 -137.33106627,144.17142 0,79.8885 61.52002027,144.20318 137.93452627,144.20318 h 92.73579 c 32.56441,0 62.39765,-11.70787 85.94305,-31.29571 19.12948,19.57364 45.59797,31.64907 74.92629,31.64907 30.24749,0 57.43091,-12.86799 76.68102,-33.53483 20.05035,20.66753 48.36366,33.53483 79.86898,33.53483 60.39494,0 109.06338,-47.22565 110.1205,-106.24979 V 206.41599 h -89.70267 c 9.2e-4,206.28294 0.18271,-72.09489 0.18271,168.67441 0,15.17325 -12.21597,27.38919 -27.38919,27.38919 -15.17331,0 -27.38923,-12.21594 -27.38923,-27.38919 0,-240.76927 0.18188,37.60825 0.18271,-168.67441 h -90.89766 c 9.7e-4,206.28257 0.18271,-72.09483 0.18271,168.67441 0,15.17325 -12.21597,27.38919 -27.38917,27.38919 -15.17331,0 -27.38919,-12.21594 -27.38919,-27.38919 0,-240.76924 0.18187,37.60816 0.18271,-168.67441 h -90.71535 v 144.17142 c 0,29.6866 -21.56521,53.58737 -48.35096,53.58737 H 138.7057 c -26.78572,0 -48.35093,-23.90077 -48.35093,-53.58737 C 90.35477,320.90074 111.91998,297 138.7057,297 h 88.35685 v -90.58401 z" /><g
       aria-label="ALABAMAS"
       id="text362"
       style="font-weight:bold;font-size:36.6735px;font-family:'F37 Bolton';-inkscape-font-specification:'F37 Bolton, Bold';stroke:#005494;stroke-width:0;stop-color:#000000"
       transform="matrix(2.7852125,0,0,2.7852125,0.21086265,-0.84330315)"><path
         d="m 58.030103,62.727104 h -5.501025 l -1.943695,-6.087801 h -9.53511 l -2.163737,6.087801 h -5.354331 l 9.388416,-26.294899 h 6.674577 z M 42.810601,51.761728 h 6.234495 l -2.310431,-7.188006 q -0.366735,-1.100205 -0.586776,-2.20041 h -0.146694 q -0.293388,1.320246 -0.623449,2.237083 z"
         id="path414" /><path
         d="M 77.980499,62.727104 H 61.037342 V 36.432205 h 5.611046 v 21.123936 h 11.332111 z"
         id="path416" /><path
         d="m 103.46858,62.727104 h -5.501025 l -1.943696,-6.087801 h -9.53511 l -2.163736,6.087801 h -5.354331 l 9.388416,-26.294899 h 6.674577 z M 88.249077,51.761728 h 6.234495 l -2.31043,-7.188006 q -0.366735,-1.100205 -0.586776,-2.20041 h -0.146694 q -0.293388,1.320246 -0.62345,2.237083 z"
         id="path418" /><path
         d="M 106.47582,62.727104 V 36.432205 h 10.63532 q 4.1441,0 6.41786,1.723654 2.27376,1.723655 2.27376,4.694208 0,2.09039 -1.10021,3.704024 -1.06353,1.613634 -3.0439,2.273757 v 0.11002 q 2.4938,0.660123 3.70403,2.273757 1.21022,1.613634 1.21022,4.034085 0,3.594003 -2.56714,5.537699 -2.56715,1.943695 -6.71125,1.943695 z m 10.48862,-15.769605 q 1.61364,0 2.56715,-0.880164 0.99018,-0.880164 0.99018,-2.383777 0,-2.897207 -3.85071,-2.897207 h -4.76756 v 6.161148 z m -0.22004,11.405459 q 4.40082,0 4.40082,-3.410636 0,-3.447309 -4.62086,-3.447309 h -4.62086 v 6.857945 z"
         id="path420" /><path
         d="m 152.39109,62.727104 h -5.50103 l -1.94369,-6.087801 h -9.53511 l -2.16374,6.087801 h -5.35433 l 9.38842,-26.294899 h 6.67457 z m -15.2195,-10.965376 h 6.23449 l -2.31043,-7.188006 q -0.36673,-1.100205 -0.58678,-2.20041 h -0.14669 q -0.29339,1.320246 -0.62345,2.237083 z"
         id="path422" /><path
         d="M 155.39833,62.727104 V 36.432205 h 5.79441 l 6.2345,9.865171 1.13688,1.907022 h 0.11002 q 0.18337,-0.366735 0.80682,-1.356919 l 0.36673,-0.62345 6.05113,-9.791824 h 5.79441 v 26.294899 h -5.31766 V 44.97713 h -0.14669 q -0.36674,0.770144 -1.21023,2.237084 l -4.6942,7.518067 h -3.55733 l -4.76756,-7.518067 q -0.73347,-1.246899 -1.13688,-2.237084 h -0.14669 v 17.749974 z"
         id="path424" /><path
         d="m 209.19833,62.727104 h -5.50102 l -1.9437,-6.087801 h -9.53511 l -2.16374,6.087801 h -5.35433 l 9.38842,-26.294899 h 6.67458 z m -15.2195,-10.965376 h 6.23449 l -2.31043,-7.188006 q -0.36673,-1.100205 -0.58677,-2.20041 h -0.1467 q -0.29338,1.320246 -0.62345,2.237083 z"
         id="path426" /><path
         d="m 224.75953,63.387227 q -4.69421,0 -7.66477,-2.273757 -2.93388,-2.31043 -2.86053,-7.077985 h 5.39101 q 0,2.420451 1.43026,3.557329 1.46694,1.100205 3.96074,1.100205 4.40082,0 4.40082,-3.007227 0,-1.246899 -0.84349,-2.053716 -0.84349,-0.84349 -2.71384,-1.393593 l -4.40082,-1.283572 q -6.60123,-1.907022 -6.60123,-7.481394 0,-3.814044 2.56715,-5.75774 2.60381,-1.943695 6.71125,-1.943695 2.75051,0 5.02427,0.880164 2.27375,0.880164 3.63067,2.787186 1.3936,1.907022 1.3936,4.804228 h -5.39101 q -0.22004,-3.887391 -4.65753,-3.887391 -1.68698,0 -2.78719,0.62345 -1.06353,0.586776 -1.06353,2.017042 0,1.026858 0.73347,1.833675 0.77014,0.806817 2.64049,1.35692 l 4.47417,1.356919 q 2.97055,0.916838 4.8409,2.640492 1.87035,1.723655 1.87035,5.13429 0,3.740697 -2.60382,5.904434 -2.56714,2.163736 -7.48139,2.163736 z"
         id="path428" /><g
         inkscape:label="Layer 1"
         id="layer1-8"
         transform="translate(-304.23317,293.0322)"><g
           aria-label="MISSISSIPPI'S"
           id="text362-9"
           style="font-weight:bold;font-size:27.2314px;font-family:'F37 Bolton';-inkscape-font-specification:'F37 Bolton, Bold';stroke:#005494;stroke-width:0;stop-color:#000000"
           transform="matrix(2.7486594,0,0,2.749187,146.99451,-16.179875)"><g
             id="g519"
             transform="matrix(0.12608338,0,0,0.12608338,-56.459719,16.827088)"
             style="font-weight:bold;font-size:27.2314px;font-family:'F37 Bolton';-inkscape-font-specification:'F37 Bolton, Bold';stroke:#005494;stroke-width:0;stop-color:#000000"><g
               id="g20"
               style="fill:#000000;fill-opacity:1"
               transform="translate(0,167.77979)"><path
                 style="font-weight:bold;font-size:167.183px;line-height:0.85;font-family:'F37 Bolton';-inkscape-font-specification:'F37 Bolton Bold';text-align:end;letter-spacing:0px;word-spacing:31.3467px;text-anchor:end;fill:#000000;fill-opacity:1;stroke-width:0;stroke-dasharray:none;paint-order:markers fill stroke"
                 d="m 1506.6116,-994.68672 q 3.6944,0 6.4416,2.7471 2.7472,2.74716 2.7472,8.52564 v 0.2842 q 0,5.11539 -2.1788,8.62038 -2.1788,3.505 -5.589,5.21008 -3.3156,1.70514 -6.8205,1.70514 v -5.68376 q 2.8418,0 4.6417,-1.61037 1.7998,-1.70514 1.7998,-4.26283 h -0.3789 q -3.6944,0 -5.9679,-2.2735 -2.1788,-2.36825 -2.1788,-5.87325 0,-3.22079 1.9893,-5.30483 2.084,-2.084 5.4943,-2.084 z"
                 id="path5" /></g></g><g
             aria-label="NORTH"
             transform="scale(1.000096,0.999904)"
             id="text506"
             style="font-size:13.375px;stop-color:#000000"><path
               d="m 97.999364,-90.710541 v -9.589879 h 1.89925 l 3.397246,5.122629 q 0.17388,0.2675 0.52163,0.856 h 0.0535 v -5.978629 h 1.93937 v 9.589879 h -1.91262 l -3.45075,-5.202875 q -0.321,-0.494875 -0.454751,-0.789125 h -0.0535 v 5.992 z"
               id="path564" /><path
               d="m 112.13673,-90.469791 q -1.48462,0 -2.568,-0.655375 -1.08337,-0.66875 -1.6585,-1.79225 -0.57512,-1.136875 -0.57512,-2.527875 0,-1.4445 0.5885,-2.608125 0.5885,-1.163625 1.67187,-1.819 1.09675,-0.668754 2.54125,-0.668754 1.4445,0 2.52788,0.668754 1.08337,0.655375 1.67187,1.819 0.5885,1.163625 0.5885,2.608125 0,1.391 -0.57512,2.527875 -0.56175,1.136875 -1.64513,1.79225 -1.08337,0.655375 -2.568,0.655375 z m 0,-1.912625 q 0.86938,0 1.498,-0.414625 0.62863,-0.428 0.94963,-1.1235 0.321,-0.6955 0.321,-1.52475 0,-0.88275 -0.321,-1.605 -0.321,-0.72225 -0.94963,-1.15025 -0.61525,-0.428 -1.498,-0.428 -0.88275,0 -1.51137,0.428 -0.61525,0.428 -0.93625,1.15025 -0.30763,0.72225 -0.30763,1.605 0,0.82925 0.30763,1.52475 0.321,0.6955 0.93625,1.1235 0.62862,0.414625 1.51137,0.414625 z"
               id="path566" /><path
               d="m 118.43636,-90.710541 v -9.589879 h 3.75838 q 1.80562,0 2.63487,0.802504 0.82925,0.789125 0.82925,2.00625 0,0.93625 -0.49487,1.63175 -0.49488,0.6955 -1.59163,1.0165 v 0.0535 q 0.1605,0.120375 0.321,0.321 0.1605,0.200625 0.46813,0.735625 l 1.77887,3.02275 h -2.247 l -2.26037,-3.82525 h -1.15025 v 3.82525 z m 3.531,-5.457 q 0.77575,0 1.24388,-0.280875 0.4815,-0.29425 0.4815,-0.963 0,-0.655375 -0.46813,-0.896125 -0.46812,-0.254125 -1.25725,-0.254125 h -1.48462 v 2.394125 z"
               id="path568" /><path
               d="m 131.28974,-90.710541 h -2.04637 v -7.717375 h -2.70175 v -1.872504 h 7.44987 v 1.872504 h -2.70175 z"
               id="path570" /><path
               d="m 137.22825,-90.710541 h -2.04638 v -9.589879 h 2.04638 v 3.852004 h 3.852 v -3.852004 h 2.04637 v 9.589879 h -2.04637 v -3.852 h -3.852 z"
               id="path572" /></g><g
             aria-label="15"
             transform="scale(1.000096,0.999904)"
             id="text557"
             style="font-size:67.364px;stop-color:#000000"><path
               d="m 157.19888,-67.431027 h -11.85606 v -6.938491 q 5.7933,-0.06736 9.3636,-2.155648 3.57029,-2.088284 4.37866,-7.140584 h 7.34267 v 47.087435 h -9.22887 z"
               id="path559" /><path
               d="m 185.23894,-35.244231 q -4.58075,0 -8.28577,-1.6841 -3.63766,-1.751464 -5.72594,-5.119664 -2.08829,-3.435564 -2.08829,-8.353136 h 8.89205 q 0,3.166108 1.95356,5.0523 2.02092,1.886192 5.38912,1.886192 3.57029,0 5.7933,-2.155648 2.22301,-2.223012 2.22301,-6.601672 0,-4.176568 -2.08828,-6.7364 -2.08829,-2.627196 -5.72594,-2.627196 -2.49247,0 -4.51339,1.279916 -1.95356,1.212552 -3.09874,3.166108 h -7.81423 l 3.50293,-26.406687 h 26.67614 v 7.948952 h -19.2661 l -0.741,5.254392 q -0.33682,2.492467 -0.9431,4.648115 h 0.26946 q 1.34728,-1.482008 3.50292,-2.290376 2.22302,-0.808368 4.91758,-0.808368 6.87112,0 10.71087,4.446024 3.90711,4.446024 3.90711,11.721336 0,7.74686 -4.51338,12.597068 -4.44603,4.782844 -12.93389,4.782844 z"
               id="path561" /></g></g></g></g></g></svg>
