<?xml version="1.0" encoding="utf-8"?>
<!-- Generator: Adobe Illustrator 26.0.2, SVG Export Plug-In . SVG Version: 6.00 Build 0)  -->
<svg version="1.1" id="CoutTV_Mystery" xmlns="http://www.w3.org/2000/svg" xmlns:xlink="http://www.w3.org/1999/xlink" x="0px"
	 y="0px" viewBox="0 0 1290.8 510.9" style="enable-background:new 0 0 1290.8 510.9;" xml:space="preserve">
<style type="text/css">
	.st0{fill:#FFFFFF;}
</style>
<g>
	<g>
		<polygon class="st0" points="166.2,419.7 131.2,205 119,205 65.1,443.5 65.1,507.4 106.6,507.4 106.6,293.5 142,507.4 
			186.9,507.4 219.8,290.5 219.8,507.4 264.7,507.4 264.7,205 198.6,205 		"/>
		<polygon class="st0" points="374,342.8 337.7,205 288,205 348.1,407.2 348.1,507.4 395.6,507.4 395.6,407.2 455.7,205 410.3,205 
					"/>
		<path class="st0" d="M517.5,274.5c0-21.6,8.6-29.8,23.8-29.8c15.1,0,23.8,8.2,23.8,29.8v19h44.9v-16c0-48.4-23.8-76-70-76
			c-46.2,0-70,27.7-70,76c0,86.4,92.9,98.1,92.9,160.3c0,21.6-9.5,29.4-24.6,29.4s-24.6-7.8-24.6-29.4v-32.4h-44.9v29.4
			c0,48.4,24.2,76,70.9,76c46.7,0,70.9-27.7,70.9-76C610.3,348.4,517.5,336.7,517.5,274.5z"/>
		<polygon class="st0" points="628.9,248.2 678.6,248.2 678.6,507.4 726.1,507.4 726.1,248.2 775.8,248.2 775.8,205 628.9,205 		"/>
		<polygon class="st0" points="801.8,507.4 931.4,507.4 931.4,464.2 849.3,464.2 849.3,375.6 914.5,375.6 914.5,332.4 849.3,332.4 
			849.3,248.2 931.4,248.2 931.4,205 801.8,205 		"/>
		<g>
			<path class="st0" d="M1107.6,470.7V424c0-31.5-7.8-54.4-31.5-64.4c21.2-9.9,31.1-30.2,31.1-61.4v-23.8
				c0-46.7-21.2-69.6-70.4-69.6h-71.7v302.4h47.5V384.3h16.4c21.6,0,31.1,10.4,31.1,38.5v47.5c0,24.6,1.7,29.4,4.3,37.2h48.4
				C1108.1,496.2,1107.6,485.4,1107.6,470.7z M1059.7,309.1c0,24.2-10.8,32-28.5,32h-18.6v-92.9h22.9c16.9,0,24.2,9.5,24.2,31.1
				V309.1z"/>
		</g>
		<polygon class="st0" points="1245.5,205 1209.2,342.8 1172.9,205 1123.2,205 1183.3,407.2 1183.3,507.4 1230.8,507.4 
			1230.8,407.2 1290.8,205 		"/>
	</g>
	<polygon id="Slash_00000183929351363377886020000015279814684286756028_" class="st0" points="15.3,506.1 0,506.1 106.6,53.5 
		121.9,53.5 	"/>
</g>
<g id="New_Logo_00000075850913696984074510000002007104589896442526_">
	<path class="st0" d="M261.9,54.4c-34.5,0-62.6,28.1-62.6,62.6c0,34.5,28.1,62.6,62.6,62.6c34.5,0,62.6-28.1,62.6-62.6
		C324.5,82.5,296.4,54.4,261.9,54.4z M261.9,147.7c-16.9,0-30.6-13.7-30.6-30.6s13.7-30.6,30.6-30.6s30.6,13.7,30.6,30.6
		S278.8,147.7,261.9,147.7z"/>
	<path class="st0" d="M179.8,56.2h-25.1c-2.6,0-4.7,2.1-4.7,4.6v112.3c0,2.6,2.1,4.6,4.7,4.6h25.1c2.6,0,4.7-2.1,4.7-4.6V60.8
		C184.5,58.3,182.4,56.2,179.8,56.2z"/>
	<path class="st0" d="M179.8,5h-25.2c-2.6,0-4.6,2.1-4.6,4.7v25.2c0,2.6,2.1,4.6,4.7,4.6h25.2c2.6,0,4.7-2.1,4.7-4.6V9.7
		C184.4,7.1,182.3,5.1,179.8,5z"/>
	<path class="st0" d="M397.4,54.4c-32,0-58.1,25.3-58.1,56.3v62.4c0,2.6,2.1,4.6,4.7,4.6h25.3c2.5,0,4.5-1.9,4.7-4.3v-60.7
		c0-12.5,10.5-22.6,23.4-22.6c12.9,0,23.4,10.1,23.4,22.6v60.6c0.1,2.4,2.2,4.4,4.7,4.4H451c2.6,0,4.6-2.1,4.7-4.6v-62.4
		C455.7,79.7,429.5,54.4,397.4,54.4z"/>
</g>
</svg>
