<svg xmlns="http://www.w3.org/2000/svg" viewBox="0 0 387.86 170.23"><defs><style>.cls-1{fill:#fff;}</style></defs><g id="Layer_2" data-name="Layer 2"><g id="Layer_1-2" data-name="Layer 1"><path class="cls-1" d="M337.66,0H125L104.72,101.52,63.13,0H34.2L0,170.23H33.91L54.43,69,95.75,170.23h28.94L153,29.32H197.1L168.92,170.23h33.91l26-130.06,2.21-11.11h99.63c14.17,0,22.62,8.09,22.62,21.64,0,5.34-1.72,16.84-5.3,35.12-6.38,33.15-9.25,40.32-15.21,46.29-6.11,6.1-13.73,9-23.31,9H286.8L306.92,40.5l-34-.11L246.88,170.23h60.86c20.49,0,36.65-5.76,48-17.13,13.84-13.83,17.54-23.46,26.44-68.7,4.4-23,5.67-30.69,5.67-37.69C387.86,17.47,369.1,0,337.66,0"/></g></g></svg>