<?xml version="1.0" encoding="utf-8"?>
<!-- Generator: Adobe Illustrator 24.3.0, SVG Export Plug-In . SVG Version: 6.00 Build 0)  -->
<svg version="1.1" id="Layer_1" xmlns="http://www.w3.org/2000/svg" xmlns:xlink="http://www.w3.org/1999/xlink" x="0px" y="0px"
	 viewBox="0 0 113.6 32.4" style="enable-background:new 0 0 113.6 32.4;" xml:space="preserve">
<style type="text/css">
	.st0{fill:#868CE0;}
	.st1{fill:#EB254B;}
	.st2{fill:#333333;}
</style>
<g id="Group_1">
	<path id="Path_1" class="st0" d="M11.9,4.9c-0.4-0.5-1-0.9-1.6-1.2C9.7,3.3,9,3.1,8.2,3.1C7.8,3.1,7.4,3.2,7,3.3
		C6.5,3.4,6.1,3.5,5.8,3.8C5.5,4,5.2,4.3,5,4.6C4.8,5,4.7,5.4,4.7,5.9c0,0.4,0.1,0.8,0.3,1.2c0.2,0.3,0.4,0.6,0.8,0.8
		C6.2,8.2,6.6,8.4,7,8.5C7.5,8.7,8,8.9,8.5,9c0.7,0.2,1.3,0.5,2,0.7s1.3,0.6,1.9,1.1c0.6,0.5,1.1,1,1.4,1.7c0.4,0.8,0.6,1.6,0.6,2.5
		c0,1-0.2,1.9-0.6,2.8c-0.4,0.8-0.9,1.5-1.6,2c-0.7,0.5-1.5,1-2.4,1.2c-0.9,0.3-1.9,0.4-2.8,0.4c-1.3,0-2.7-0.2-3.9-0.7
		S0.9,19.4,0,18.4L2.6,16c0.6,0.7,1.3,1.2,2.1,1.6s1.6,0.6,2.5,0.6c0.4,0,0.9-0.1,1.3-0.2c0.4-0.1,0.8-0.3,1.2-0.5
		c0.3-0.2,0.6-0.5,0.8-0.9s0.4-0.9,0.4-1.4s-0.1-1-0.4-1.3c-0.2-0.4-0.6-0.7-1-0.9c-0.5-0.3-1-0.5-1.5-0.7c-0.7,0-1.3-0.3-2-0.5
		c-0.6-0.2-1.2-0.5-1.8-0.7S3,10.5,2.5,10C2,9.6,1.7,9,1.4,8.4C1.1,7.6,0.9,6.8,0.9,6c0-0.9,0.2-1.9,0.7-2.7C2,2.6,2.6,2,3.3,1.5
		s1.5-0.9,2.4-1.1C6.6,0.1,7.4,0,8.3,0c1.1,0,2.1,0.2,3.1,0.6c1,0.3,2,0.9,2.8,1.6L11.9,4.9z"/>
</g>
<g id="Group_2" transform="translate(16.487 0.666)">
	<path id="Path_2" class="st0" d="M0,0h3.6v8.1h9.5V0h3.6v20.2h-3.6v-9H3.6v9H0.1L0,0L0,0z"/>
</g>
<g id="Group_3" transform="translate(58.832 0.666)">
	<path id="Path_3" class="st0" d="M0,0h6.6c1.1,0,2.1,0.1,3.2,0.4c0.9,0.2,1.7,0.5,2.4,1.1c1.4,1.1,2.2,2.7,2.1,4.5
		c0,1-0.2,1.9-0.6,2.8c-0.4,0.8-1,1.4-1.7,1.8c-0.8,0.5-1.6,0.8-2.5,1c-1,0.2-2,0.4-3.1,0.4H3.6v8.4H0V0z M6.1,8.8
		c0.6,0,1.1,0,1.7-0.1c0.5,0,1-0.2,1.4-0.5c0.4-0.2,0.8-0.5,1-0.9c0.3-0.5,0.4-1,0.4-1.5s-0.1-1-0.4-1.4C10,4,9.6,3.7,9.2,3.5
		C8.8,3.4,8.3,3.2,7.8,3.2c-0.5-0.1-1-0.1-1.6-0.1H3.6v5.8L6.1,8.8L6.1,8.8z"/>
</g>
<g id="Group_6" transform="translate(35.177 0.051)">
	<g id="Group_4">
		<path id="Path_4" class="st0" d="M20.9,6.2L20.9,6.2c-0.7,0.3-1.5,0.7-2.3,0.9c-2.3,0.6-3-0.2-3.1-0.3l0,0
			c-0.2-0.3-0.3-0.6-0.4-0.9C15,6,14.9,6,14.7,6.1c-0.4,0.3-0.4,0.9-0.1,1.3c0.4,0.5,1,0.5,1.4,0.2l0.1-0.1c0.3,0.1,0.6,0.1,0.9,0.1
			c0.4,0,0.9-0.1,1.3-0.2v3l0,0c0,0.2,0,0.4-0.2,0.5L8.2,19c-0.2,0.3-0.5,0.2-0.7,0l-5.6-6.8C1.7,12,1.8,11.7,2,11.5l10-8.2
			c0.2-0.1,0.4-0.1,0.6-0.1l0,0L15.8,4V3.9c0.4-0.8,0.9-1.5,1.5-2.2c-0.6-0.4-1.3-0.8-2-1c-2.8-1-5.9-1-8.8,0
			C5.2,1.2,4.1,1.9,3.1,2.8s-1.8,2-2.3,3.3C0.2,7.5,0,9,0,10.5s0.3,3,0.8,4.4c0.5,1.3,1.3,2.4,2.3,3.4s2.1,1.7,3.4,2.2
			c1.4,0.5,2.9,0.8,4.4,0.8s3-0.2,4.4-0.8c1.3-0.5,2.5-1.2,3.4-2.2c1-1,1.7-2.1,2.3-3.4c0.5-1.4,0.8-2.9,0.8-4.4
			C21.7,9.1,21.4,7.6,20.9,6.2z"/>
	</g>
	<g id="Group_5" transform="translate(15.668 2.407)">
		<path id="Path_5" class="st0" d="M0.6,1.8l1.5,0.4c0.3,0,0.5,0.3,0.5,0.6v1.4c-0.5,0-0.9,0.1-1.4,0.1c-0.2,0-0.5,0-0.7-0.1
			c0-0.1,0-0.2,0-0.2C0.3,3.9,0.2,3.8,0,3.7c0,0.2,0,0.4,0.2,0.6l0,0c0.4,0.3,0.9,0.4,1.4,0.4l0,0c1.1-0.2,2.2-0.6,3.2-1.2
			c-0.5-1-1.2-1.9-2-2.7C2.5,0.5,2.2,0.2,1.9,0C1.3,0.5,0.8,1.1,0.6,1.8z"/>
	</g>
</g>
<g id="Group_7" transform="translate(81.669 0.666)">
	<path id="Path_6" class="st1" d="M0,0h3.6v17.1h8.6v3.2H0V0z"/>
</g>
<g id="Group_8" transform="translate(95.033 0.154)">
	<path id="Path_7" class="st1" d="M15.5,5.3C15,4.6,14.3,4,13.4,3.7C11.7,3,9.8,3,8,3.7C7.2,4.1,6.5,4.6,5.8,5.3
		C5.2,5.9,4.7,6.8,4.4,7.6c-0.4,1-0.5,2-0.5,2.9c0,1,0.2,2.1,0.5,3.1c0.3,0.9,0.8,1.7,1.4,2.4c0.6,0.7,1.3,1.2,2.2,1.5
		c0.9,0.4,1.8,0.6,2.8,0.6s2-0.2,2.9-0.7c0.8-0.4,1.5-1,2-1.7l2.9,2c-0.9,1.1-2,2-3.3,2.6c-1.4,0.6-3,1-4.6,0.9
		c-1.5,0-3-0.2-4.4-0.8C5.1,20,3.9,19.2,3,18.3c-1-0.9-1.7-2.1-2.2-3.4C0.2,13.5-0.1,12,0,10.5c0-1.5,0.2-3,0.8-4.4
		c0.5-1.3,1.3-2.4,2.4-3.3C5.3,0.9,8.1-0.1,11,0c0.7,0,1.4,0.1,2,0.2c0.7,0.1,1.4,0.3,2,0.6c0.7,0.2,1.3,0.5,1.8,0.9
		C17.5,2,18,2.5,18.4,3L15.5,5.3z"/>
</g>
<path id="Path_8" class="st2" d="M23.1,29.5c0,0.4-0.1,0.8-0.3,1.2c-0.1,0.3-0.4,0.6-0.7,0.8c-0.3,0.2-0.6,0.4-0.9,0.5
	c-0.4,0.1-0.7,0.2-1.1,0.2h-2v-5.4H20c0.4,0,0.8,0,1.1,0.1c0.4,0.1,0.7,0.2,1,0.5c0.3,0.2,0.5,0.5,0.7,0.8
	C23,28.6,23.1,29.1,23.1,29.5z M21.8,29.5c0-0.3,0-0.5-0.2-0.8c-0.1-0.2-0.2-0.4-0.4-0.5S20.8,28,20.6,28c-0.2,0-0.4-0.1-0.7-0.1
	h-0.7V31h0.6c0.2,0,0.4,0,0.7-0.1c0.2-0.1,0.4-0.1,0.6-0.3c0.2-0.1,0.3-0.3,0.4-0.5C21.7,30,21.8,29.8,21.8,29.5L21.8,29.5z"/>
<path id="Path_9" class="st2" d="M25.1,32.2v-5.4h3.6V28h-2.4v1h2.2v1h-2.2v1.1h2.5v1.1H25.1L25.1,32.2z"/>
<path id="Path_10" class="st2" d="M30.8,32.2v-5.4h1.3V31h2v1.1L30.8,32.2L30.8,32.2z"/>
<path id="Path_11" class="st2" d="M35.9,32.2v-5.4h1.3v5.4H35.9z"/>
<path id="Path_12" class="st2" d="M42.1,32.2h-1.3l-2-5.4h1.4l1.2,3.8h0.1l1.2-3.8h1.4L42.1,32.2z"/>
<path id="Path_13" class="st2" d="M45.8,32.2v-5.4h3.6V28H47v1h2.2v1H47v1.1h2.5v1.1H45.8L45.8,32.2z"/>
<path id="Path_14" class="st2" d="M54.4,32.2l-1.2-2.1h-0.5v2.1h-1.3v-5.4h2c0.3,0,0.5,0,0.8,0.1c0.2,0.1,0.5,0.1,0.7,0.3
	c0.2,0.1,0.4,0.3,0.5,0.5s0.2,0.5,0.2,0.8s-0.1,0.6-0.3,0.9c-0.2,0.2-0.5,0.4-0.8,0.6l1.4,2.3L54.4,32.2L54.4,32.2z M54.3,28.5
	c0-0.1,0-0.2-0.1-0.4c-0.1-0.1-0.1-0.2-0.2-0.2c-0.1-0.1-0.2-0.1-0.3-0.1h-0.9V29h0.9c0.1,0,0.2,0,0.3-0.1c0.1,0,0.2-0.1,0.2-0.2
	C54.3,28.7,54.3,28.6,54.3,28.5L54.3,28.5z"/>
<path id="Path_15" class="st2" d="M57.7,32.2v-5.4H59v5.4H57.7z"/>
<path id="Path_16" class="st2" d="M64.7,32.2l-2.2-3.5l0,0l0.1,3.5h-1.3v-5.4h1.5l2.2,3.5l0,0l-0.1-3.5h1.3v5.4H64.7z"/>
<path id="Path_17" class="st2" d="M72.2,32.2c-0.4,0.1-0.8,0.1-1.2,0.1c-0.4,0-0.8-0.1-1.2-0.2c-0.3-0.1-0.6-0.3-0.9-0.6
	c-0.6-0.5-0.9-1.3-0.8-2c0-0.4,0.1-0.8,0.2-1.2c0.1-0.3,0.3-0.6,0.6-0.9c0.3-0.2,0.6-0.4,0.9-0.6c0.4-0.1,0.8-0.2,1.2-0.2
	c0.4,0,0.8,0,1.2,0.2c0.3,0.1,0.6,0.2,0.9,0.5l-0.8,0.9c-0.1-0.2-0.3-0.3-0.5-0.4s-0.5-0.2-0.7-0.2s-0.4,0-0.6,0.1s-0.4,0.2-0.5,0.4
	c-0.1,0.2-0.3,0.4-0.4,0.6s-0.1,0.4-0.1,0.7c0,0.2,0,0.4,0.1,0.7c0,0.2,0.2,0.4,0.4,0.6c0.2,0.1,0.3,0.3,0.5,0.4s0.5,0.1,0.7,0.1
	s0.3,0,0.5-0.1c0.1,0,0.3,0,0.4-0.1v-0.8h-1v-1.1h2.2v2.8C72.9,32,72.5,32.2,72.2,32.2z"/>
<path id="Path_18" class="st2" d="M80.6,31.9L80.6,31.9c-0.3,0.3-0.6,0.4-1,0.5h-0.3c-0.4,0-0.8-0.1-1.2-0.4
	c-0.3-0.2-0.5-0.5-0.6-0.9l1.2-0.4c0,0.1,0.1,0.2,0.2,0.4c0.1,0.1,0.2,0.1,0.4,0.1c0.2,0,0.4-0.1,0.5-0.2c0.1-0.2,0.1-0.4,0.1-0.6
	v-3.5h1.3v3.5c0,0.3,0,0.7-0.2,1C80.8,31.6,80.7,31.8,80.6,31.9z"/>
<path id="Path_19" class="st2" d="M93.3,30v2.3H92V30l-2-3.1h1.5l1.2,2l1.2-2h1.5L93.3,30z"/>
<g id="Group_10" transform="translate(83.154 26.882)">
	<path id="Path_20" class="st2" d="M2.8,5.5C1.2,5.5,0,4.3,0,2.8S1.2,0,2.8,0s2.8,1.2,2.8,2.8l0,0C5.5,4.3,4.3,5.5,2.8,5.5L2.8,5.5z
		 M2.8,1.2c-0.9,0-1.6,0.7-1.6,1.6s0.7,1.6,1.6,1.6s1.6-0.7,1.6-1.6C4.3,1.9,3.6,1.2,2.8,1.2z"/>
</g>
</svg>
