<svg xmlns="http://www.w3.org/2000/svg" viewBox="0 0 564.062 152.604"><path fill="#253d98" d="M7.05 126.28l1.103-5.418H332.69V19.506H26.741L2.281 134.585H332.69v-8.305z"/><path fill="#fff" d="M7.05 126.28h325.64v-5.418H8.153z"/><path fill="#ad1f25" d="M332.69 1.771v149.321h230.326V1.771z"/><path d="M547.622 87.28c-4.552-5.577-12.923-11.629-25.117-18.159 9.893-3.632 17.19-7.7 21.885-12.203 4.699-4.504 7.047-9.728 7.047-15.684 0-7.924-4.296-14.699-12.885-20.318-8.589-5.62-20.853-8.43-36.8-8.43-16.528 0-29.538 3.18-39.031 9.545-9.495 6.364-14.237 13.755-14.237 22.182 0 6.362 1.866 11.94 5.611 16.73 3.739 4.792 12.406 10.956 25.998 18.495-12.425 4.22-21.294 8.853-26.626 13.903a30.82 30.82 0 0 0-1.452 1.498v-1.947h-15.408V11.733h-15.17l-79.893 81.159v19.164h60.872v28.182h34.191v-28.182h8.899c.319 8.427 4.839 15.558 13.591 21.377 9.077 6.04 21.915 9.059 38.508 9.059 17.502 0 31.35-3.47 41.543-10.409 10.195-6.941 15.296-15.488 15.296-25.658.001-7.186-2.279-13.566-6.822-19.145m-145.204 5.613h-49.341l49.341-50.119v50.119zm112.426 38.609c-4.103 3.324-9.155 4.98-15.148 4.98-3.856 0-7.615-.866-11.266-2.599-3.652-1.73-6.464-4.556-8.435-8.475-1.973-3.918-2.957-8.768-2.957-14.542 0-4.534.682-8.867 2.052-12.988 1.367-4.121 2.905-7.257 4.612-9.405 1.111-1.398 2.989-2.966 5.642-4.704 21.275 10.646 31.821 21.987 31.659 34.024-.001 5.818-2.058 10.385-6.159 13.709m5.148-77.209c-1.421 3.834-3.592 7.274-6.516 10.322-12.484-6.23-20.869-11.748-25.141-16.562-4.273-4.814-6.412-9.481-6.412-14.009 0-4.438 1.891-8.143 5.672-11.101 3.782-2.96 8.374-4.445 13.768-4.445 5.954 0 10.621 1.648 14.001 4.94 4.509 4.206 6.765 10.305 6.765 18.302.001 4.533-.716 8.718-2.137 12.553M55.959 88.661l20.92-60.079h20.43l-3.892 60.079h.245l18.848-60.079h21.891l-33.321 86.836H76.27l4.865-58.377h-.243l-19.947 58.377h-24.81l3.649-86.836h21.891l-5.959 60.079zM112.65 115.418l33.425-86.836h32.718l2.675 86.836H157.39l.973-15.201h-17.999l-5.595 15.201H112.65zm46.565-32.23l1.7-36.849h-.242l-14.108 36.849h12.65zM189.236 115.418l18.485-86.836h51.445l-4.014 18.487h-28.823l-3.039 14.837h26.999l-3.893 17.755h-26.999l-7.539 35.757zM251.121 115.418l18.486-86.836h51.444l-4.014 18.487h-28.821l-3.042 14.837h27l-3.892 17.755h-26.999l-7.541 35.757z" fill="#fff"/></svg>